<?xml version="1.0" standalone="no"?><!DOCTYPE svg PUBLIC "-//W3C//DTD SVG 1.1//EN" "http://www.w3.org/Graphics/SVG/1.1/DTD/svg11.dtd"><svg t="1559402888507" class="icon" style="" viewBox="0 0 1024 1024" version="1.1" xmlns="http://www.w3.org/2000/svg" p-id="2286" xmlns:xlink="http://www.w3.org/1999/xlink" width="200" height="200"><defs><style type="text/css"></style></defs><path d="M861.24099189 541.66420987c0 19.37122084 7.97209938 38.62189171 21.67488923 52.32468287 13.69484142 13.69616701 32.94683788 21.67488925 52.32203295 21.67488925 19.36857094 0 38.62851586-7.97872223 52.32203298-21.67488925 13.70278987-13.70278987 21.67488925-32.95346204 21.67488924-52.32468287 0-19.37519378-7.97209938-38.62586593-21.67488924-52.32865582-13.69484142-13.69616701-32.95346204-21.67488925-52.32203298-21.67488925-19.37519378 0-38.62851586 7.97872223-52.32203295 21.67488925C869.21309123 503.0370183 861.24099189 522.28901477 861.24099189 541.66420987L861.24099189 541.66420987zM861.24099189 541.66420987" p-id="2287"></path><path d="M19.51027173 541.66420987c0 25.41189372 10.46255152 50.66084779 28.42560601 68.62920081 17.96967863 17.96967863 43.22525556 28.43223015 68.63449935 28.43223015s50.66614633-10.46255152 68.63449935-28.43223015c17.96702874-17.96702874 28.42560599-43.21730709 28.42560602-68.62920081 0-25.41056812-10.45725297-50.66614633-28.42560602-68.63317506-17.96967863-17.96967863-43.22525556-28.42693161-68.63449935-28.42693161s-50.66614633 10.45725297-68.63449935 28.42693161C29.97282325 490.99806352 19.51027173 516.25364046 19.51027173 541.66420987L19.51027173 541.66420987zM19.51027173 541.66420987" p-id="2288"></path><path d="M451.9032498 950.99532779c0 19.37519378 7.97872223 38.62851586 21.67488924 52.3286558 13.70278987 13.69616701 32.95346204 21.6682651 52.32865583 21.6682651 19.37122084 0 38.62851586-7.97209938 52.32468287-21.6682651 13.69616701-13.70146556 21.67488925-32.95346204 21.67488925-52.3286558 0-19.36857094-7.97872223-38.62851586-21.67488925-52.32203295-13.69616701-13.70278987-32.95346204-21.67488925-52.32468287-21.67488925-19.37519378 0-38.62586593 7.97209938-52.32865583 21.67488925C459.88197205 912.36681194 451.9032498 931.62543254 451.9032498 950.99532779L451.9032498 950.99532779zM451.9032498 950.99532779" p-id="2289"></path><path d="M399.06458085 132.3277921c0 33.20913074 13.67099731 66.21160659 37.15146454 89.69207509 23.4791429 23.4791429 56.48294435 37.15146454 89.69074948 37.15146451 33.20383219 0 66.20630803-13.67232163 89.68677653-37.15146451 23.48046721-23.48046721 37.15146454-56.48426866 37.15146454-89.69207509 0-33.20250789-13.67099731-66.20630803-37.15146454-89.68677656-23.4791429-23.48046721-56.48294435-37.15146454-89.68677653-37.15146451-33.20913074 0-66.21160659 13.67099731-89.69074948 37.15146451C412.73557817 66.12148406 399.06458085 99.1252855 399.06458085 132.3277921L399.06458085 132.3277921zM399.06458085 132.3277921" p-id="2290"></path><path d="M741.34819979 831.10253698c0 19.37519378 7.97739793 38.62586593 21.67356492 52.32865582 13.70278987 13.69616701 32.95346204 21.67488925 52.32468287 21.67488926 19.37519378 0 38.62586593-7.97872223 52.32865583-21.67488926 13.69616701-13.70278987 21.67488925-32.95346204 21.67488924-52.32865582 0-19.37122084-7.97872223-38.62189171-21.67488924-52.32468288-13.70278987-13.69616701-32.95346204-21.67488925-52.32865583-21.67488926-19.36989524 0-38.62189171 7.97872223-52.32468287 21.67488926C749.32559771 792.48064399 741.34819979 811.73131613 741.34819979 831.10253698L741.34819979 831.10253698zM741.34819979 831.10253698" p-id="2291"></path><path d="M125.39029159 252.22058418c0 29.08001324 11.97139541 57.97986557 32.53087942 78.53802525 20.56478255 20.55948401 49.46331055 32.52955511 78.54332378 32.52955511 29.08001324 0 57.97986557-11.96874681 78.53802525-32.52955511 20.55948401-20.55815969 32.52955511-49.45801201 32.52955512-78.53802525 0-29.07868761-11.96874681-57.97853993-32.52955512-78.54332377-20.55815969-20.55948401-49.45801201-32.53087946-78.53802525-32.53087943-29.07868761 0-57.97853993 11.97139541-78.54332378 32.53087943C137.36036141 194.24204298 125.39029159 223.1418953 125.39029159 252.22058418L125.39029159 252.22058418zM125.39029159 252.22058418" p-id="2292"></path><path d="M162.45962413 831.10253698c0 19.37519378 7.97872223 38.62586593 21.67488925 52.32865582 13.70278987 13.69616701 32.95346204 21.67488925 52.32865581 21.67488926 19.37122084 0 38.62851586-7.97872223 52.32468288-21.67488926 13.70146556-13.70278987 21.67356494-32.95346204 21.67356492-52.32865582 0-19.37122084-7.97209938-38.62189171-21.67356492-52.32468288-13.69616701-13.69616701-32.95346204-21.67488925-52.32468288-21.67488926-19.37519378 0-38.62586593 7.97872223-52.32865581 21.67488926C170.43834637 792.48064399 162.45962413 811.73131613 162.45962413 831.10253698L162.45962413 831.10253698zM162.45962413 831.10253698" p-id="2293"></path><path d="M741.34819979 252.22058418c0 19.37651939 7.97739793 38.62851586 21.67356492 52.32468288 13.70278987 13.70146556 32.95346204 21.67356494 52.32468287 21.67356493 19.37519378 0 38.62586593-7.97209938 52.32865583-21.67356493 13.69616701-13.69616701 21.67488925-32.94683788 21.67488924-52.32468288 0-19.37519378-7.97872223-38.62586593-21.67488924-52.32203294-13.70278987-13.70278987-32.95346204-21.67488925-52.32865583-21.67488926-19.36989524 0-38.62189171 7.97209938-52.32468287 21.67488926C749.32559771 213.59471695 741.34819979 232.84538911 741.34819979 252.22058418L741.34819979 252.22058418zM741.34819979 252.22058418" p-id="2294"></path></svg>